<svg width="16" height="16" viewBox="0 0 16 16" fill="none" xmlns="http://www.w3.org/2000/svg">
<path fill-rule="evenodd" clip-rule="evenodd" d="M3.55285 11.0492C1.48271 8.97911 1.48271 5.62275 3.55285 3.55261C5.62299 1.48246 8.97935 1.48246 11.0495 3.55261C12.9416 5.44475 13.1043 8.41145 11.5376 10.4884L13.6291 12.58L13.6291 12.58C14.1746 13.1256 13.3562 13.944 12.8106 13.3984L10.7441 11.3319C8.66146 13.1147 5.52405 13.0204 3.55285 11.0492ZM10.2311 4.3713C8.61292 2.75315 5.98939 2.75315 4.37124 4.3713C2.7531 5.98944 2.7531 8.61297 4.37124 10.2311C5.98939 11.8493 8.61292 11.8493 10.2311 10.2311C11.8492 8.61297 11.8492 5.98944 10.2311 4.3713Z" fill="#777E91"/>
</svg>
